<svg style="fill: #5aa0e2;" height="90pt" viewBox="0 0 448 448" width="90pt" xmlns="http://www.w3.org/2000/svg"><path d="m0 144h448v16h-448zm0 0"/><path d="m72 0h16v16h-16zm0 0"/><path d="m112 32h-64v64h64zm-8 40h-16v16h-16v-16h-16v-16h16v-16h16v16h16zm0 0"/><path d="m16 400h416v16h-416zm0 0"/><path d="m440 368h-432c-4.417969 0-8 3.582031-8 8s3.582031 8 8 8h432c4.417969 0 8-3.582031 8-8s-3.582031-8-8-8zm0 0"/><path d="m0 432h448v16h-448zm0 0"/><path d="m360 0h16v16h-16zm0 0"/><path d="m224.609375 243.0625c-1.238281-2.988281-.554687-6.429688 1.734375-8.71875l26.34375-26.34375h-61.597656l-10.722656 24h13c2.640624 0 5.109374 1.304688 6.601562 3.480469 1.492188 2.179687 1.8125 4.953125.855469 7.414062l-5.128907 13.105469h20.304688c2.625-.003906 5.085938 1.285156 6.582031 3.441406 1.496094 2.160156 1.839844 4.917969.914063 7.375l-11.03125 29.40625 48.222656-48.222656h-28.6875c-3.234375 0-6.152344-1.949219-7.390625-4.9375zm0 0"/><path d="m419.054688 112h-390.109376l-8 16h406.109376zm0 0"/><path d="m16 176v176h416v-176zm269.65625 69.65625-88 88c-2.664062 2.671875-6.828125 3.121094-10 1.078125s-4.484375-6.023437-3.152344-9.550781l19.953125-53.183594h-20.457031c-2.640625 0-5.109375-1.304688-6.601562-3.480469-1.488282-2.179687-1.808594-4.953125-.855469-7.414062l5.097656-13.105469h-13.640625c-2.710938 0-5.238281-1.371094-6.710938-3.648438-1.476562-2.273437-1.699218-5.140624-.59375-7.617187l17.863282-40c1.289062-2.878906 4.148437-4.734375 7.304687-4.734375h86.136719c3.234375 0 6.152344 1.949219 7.390625 4.9375s.550781 6.429688-1.734375 8.71875l-26.34375 26.34375h28.6875c3.234375 0 6.152344 1.949219 7.390625 4.9375s.550781 6.429688-1.734375 8.71875zm0 0"/><path d="m400 32h-64v64h64zm-8 40h-48v-16h48zm0 0"/><path d="m176 37.34375 17.601562 23.457031c1.507813 2.011719 3.878907 3.199219 6.398438 3.199219s4.890625-1.1875 6.398438-3.199219l17.601562-23.464843 17.601562 23.464843c1.507813 2.011719 3.878907 3.199219 6.398438 3.199219s4.890625-1.1875 6.398438-3.199219l17.601562-23.480469 17.601562 23.480469 12.796876-9.601562-24-32c-1.507813-2.011719-3.878907-3.199219-6.398438-3.199219s-4.890625 1.1875-6.398438 3.199219l-17.601562 23.480469-17.664062-23.480469c-1.574219-1.914063-3.921876-3.019531-6.398438-3.019531-2.480469 0-4.828125 1.105468-6.402344 3.019531l-17.597656 23.464843-17.539062-23.464843c-1.574219-1.910157-3.921876-3.015625-6.398438-3.015625s-4.824219 1.105468-6.398438 3.015625l-23.960937 32 12.800781 9.601562zm0 0"/></svg>