<svg style="fill: #5aa0e2;" height="90pt" viewBox="-8 0 464 464" width="90pt" xmlns="http://www.w3.org/2000/svg"><path d="m96 232c0 4.417969-3.582031 8-8 8s-8-3.582031-8-8 3.582031-8 8-8 8 3.582031 8 8zm0 0"/><path d="m184 232c0 4.417969-3.582031 8-8 8s-8-3.582031-8-8 3.582031-8 8-8 8 3.582031 8 8zm0 0"/><path d="m168 336h24v-48h-24c-13.253906 0-24 10.746094-24 24s10.746094 24 24 24zm0 0"/><path d="m320 312c0-4.417969-3.582031-8-8-8h-40v64h48zm0 0"/><path d="m432 137.601562v29.085938l7.59375 22.769531c.269531.820313.410156 1.679688.40625 2.542969v40h8v-83.71875zm0 0"/><path d="m184.40625 178.527344-14.175781-42.527344h-92.460938l-14.175781 42.527344c-1.089844 3.269531-4.148438 5.472656-7.59375 5.472656h-16v40h25.472656c3.339844-9.585938 12.378906-16.007812 22.527344-16.007812s19.1875 6.421874 22.527344 16.007812h42.945312c3.339844-9.585938 12.378906-16.007812 22.527344-16.007812s19.1875 6.421874 22.527344 16.007812h17.472656v-33.753906l-25.945312-6.484375c-2.652344-.664063-4.78125-2.640625-5.648438-5.234375zm-80.40625 13.472656h-32v-16h32zm0 0"/><path d="m424 312h16v16h-16zm0 0"/><path d="m0 416h256v32h-256zm0 0"/><path d="m424 240v-46.703125l-7.59375-22.769531c-.269531-.816406-.40625-1.667969-.40625-2.527344v-41.054688l-29.238281-19.488281-14.25 49.855469 39.0625 19.527344c2.714843 1.355468 4.425781 4.128906 4.425781 7.160156v112h32v-48h-16c-4.417969 0-8-3.582031-8-8zm0 0"/><path d="m0 384h256v16h-256zm0 0"/><path d="m88 56c0 4.417969-3.582031 8-8 8s-8-3.582031-8-8 3.582031-8 8-8 8 3.582031 8 8zm0 0"/><path d="m184 56c0 4.417969-3.582031 8-8 8s-8-3.582031-8-8 3.582031-8 8-8 8 3.582031 8 8zm0 0"/><path d="m389.390625 40h-117.390625v18.585938l34.976562 13.980468c3.035157 1.21875 5.027344 4.160156 5.023438 7.433594v72c.003906 3.273438-1.988281 6.214844-5.023438 7.433594l-34.976562 13.980468v18.585938h73.96875zm0 0"/><path d="m216 0h-176v88h176zm-56 8h32v16h-32zm-96 0h32v16h-32zm16 72c-13.253906 0-24-10.746094-24-24s10.746094-24 24-24 24 10.746094 24 24-10.746094 24-24 24zm96 0c-13.253906 0-24-10.746094-24-24s10.746094-24 24-24 24 10.746094 24 24-10.746094 24-24 24zm0 0"/><path d="m296 85.414062-24-9.597656v80.367188l24-9.597656zm0 0"/><path d="m248 0h-16v96c0 4.417969-3.582031 8-8 8h-192c-4.417969 0-8-3.582031-8-8v-96h-16c-4.417969 0-8 3.582031-8 8v360h256v-360c0-4.417969-3.582031-8-8-8zm-16 232c0 4.417969-3.582031 8-8 8h-25.472656c-3.339844 9.585938-12.378906 16.007812-22.527344 16.007812s-19.1875-6.421874-22.527344-16.007812h-42.945312c-3.339844 9.585938-12.378906 16.007812-22.527344 16.007812s-19.1875-6.421874-22.527344-16.007812h-9.472656v56c0 4.417969 3.582031 8 8 8h64.800781c3.828125-18.613281 20.199219-31.976562 39.199219-32h32c4.417969 0 8 3.582031 8 8v8h24v16h-24v16h24v16h-24v8c0 4.417969-3.582031 8-8 8h-32c-19-.023438-35.371094-13.386719-39.199219-32h-64.800781c-13.253906 0-24-10.746094-24-24v-56h-8c-4.417969 0-8-3.582031-8-8v-56c0-4.417969 3.582031-8 8-8h18.230469l14.175781-42.527344c1.089844-3.269531 4.148438-5.472656 7.59375-5.472656h104c3.445312 0 6.503906 2.203125 7.59375 5.472656l14.605469 43.832032 27.746093 6.933593c3.558594.894531 6.054688 4.09375 6.054688 7.761719zm0 0"/><path d="m424 392c0 30.929688-25.070312 56-56 56s-56-25.070312-56-56v-16h-16v16c0 39.765625 32.234375 72 72 72s72-32.234375 72-72v-56h-16zm0 0"/></svg>