<svg style="fill: #5aa0e2;" height="90pt" viewBox="0 -32 448 448" width="90pt" xmlns="http://www.w3.org/2000/svg"><path d="m376 96h-169.601562l-30.078126 82.71875c-1.144531 3.167969-4.152343 5.28125-7.519531 5.28125h-104.800781v192c0 4.417969 3.582031 8 8 8h169.441406l22.238282-66.558594c1.074218-3.246094 4.101562-5.4375 7.519531-5.441406h112.800781v-208c0-4.417969-3.582031-8-8-8zm-264 256h-16v-16h16zm0-40h-16v-16h16zm0-40h-16v-16h16zm0-40h-16v-16h16zm64 120h-48v-16h48zm0-40h-48v-16h48zm0-40h-48v-16h48zm0-40h-48v-16h48zm32 120h-16v-16h16zm0-40h-16v-16h16zm0-40h-16v-16h16zm0-40h-16v-16h16zm150.152344-50.878906-80 96c-2.460938 2.953125-6.675782 3.738281-10.039063 1.867187-3.359375-1.871093-4.910156-5.867187-3.699219-9.515625l20.480469-61.472656h-28.894531c-2.6875 0-5.199219-1.351562-6.679688-3.597656-1.480468-2.246094-1.730468-5.082032-.671874-7.554688l24-56c1.261718-2.941406 4.152343-4.847656 7.351562-4.847656h40c2.78125-.015625 5.367188 1.414062 6.835938 3.773438 1.46875 2.363281 1.605468 5.316406.363281 7.800781l-10.253907 20.425781h35.054688c3.105469 0 5.929688 1.792969 7.25 4.605469 1.316406 2.808593.890625 6.128906-1.097656 8.515625zm0 0"/><path d="m32 280h16v16h-16zm0 0"/><path d="m8 200h-8v176h8c4.417969 0 8-3.582031 8-8v-160c0-4.417969-3.582031-8-8-8zm0 0"/><path d="m297.191406 180.207031c-1.457031-2.355469-1.589844-5.300781-.351562-7.78125l10.214844-20.425781h-21.78125l-17.136719 40h27.863281c2.570312 0 4.984375 1.238281 6.484375 3.324219 1.503906 2.085937 1.910156 4.765625 1.101563 7.203125l-10.585938 31.785156 41.921875-50.3125h-30.921875c-2.773438 0-5.347656-1.433594-6.808594-3.792969zm0 0"/><path d="m180.320312 0-21.359374 32h258.078124l-21.359374-32zm0 0"/><path d="m280 48h24v32h-24zm0 0"/><path d="m440 120c-4.417969 0-8 3.582031-8 8v160c0 4.417969 3.582031 8 8 8h8v-176zm0 0"/><path d="m271.679688 344h83.359374l8-16h-86.078124zm0 0"/><path d="m400 200h16v16h-16zm0 0"/><path d="m168.960938 152h-68.960938l-12 16h75.199219zm0 0"/></svg>